{"asset":{"version":"2.0","generator":"THREE.GLTFExporter"},"scenes":[{"nodes":[0],"name":"AuxScene"}],"scene":0,"nodes":[{"mesh":0}],"bufferViews":[{"buffer":0,"byteOffset":0,"byteLength":13320,"target":34962,"byteStride":12},{"buffer":0,"byteOffset":13320,"byteLength":13320,"target":34962,"byteStride":12}],"buffers":[{"byteLength":26640,"uri":"data:application/octet-stream;base64,"}],"accessors":[{"bufferView":0,"componentType":5126,"count":1110,"max":[100.61190795898438,10.195968627929688,100.61190795898438],"min":[-100.78809356689453,0.19596900045871735,-100.78809356689453],"type":"VEC3"},{"bufferView":1,"componentType":5126,"count":1110,"max":[0.5501395463943481,1,0.38342949748039246],"min":[-0.3810019791126251,0.7418411374092102,-0.2540002465248108],"type":"VEC3"}],"materials":[{"pbrMetallicRoughness":{"baseColorFactor":[0.5019607843137255,0.5019607843137255,0.5019607843137255,1],"metallicFactor":0,"roughnessFactor":1}}],"meshes":[{"primitives":[{"mode":4,"attributes":{"POSITION":0,"NORMAL":1},"material":0}]}]}